# xmcd
#
# Track frame offsets: 
#        150
#        21478
#        45547
#        70731
#        90436
#
# Disc length: 1591 seconds
#
# Revision: 0
# Processed by: cddbd v1.5.2PL0 Copyright (c) Steve Scherf et al.
# Submitted via: ExactAudioCopy v0.95b4
#
DISCID=37063505
DTITLE=Eric Johnson - 2000-11-10 - Austin City Limits - Austin TX
DYEAR=2000
DGENRE=Rock
TTITLE0=Zenland
TTITLE1=Friends
TTITLE2=Rain
TTITLE3=Nothing Can Keep Me From You
TTITLE4=Spanish Castle Magic
EXTD=
EXTT0=
EXTT1=
EXTT2=
EXTT3=
EXTT4=
PLAYORDER=
